<svg xmlns="http://www.w3.org/2000/svg" viewBox="0 0 100 100"><path d="M25.215 22.772h51.039v60.72H25.215v-60.72zm16.123 29.689a19.237 19.237 0 0 1 3.654 9.49l.149 1.479h11.184l.148-1.479a19.296 19.296 0 0 1 3.648-9.49c3.809-5.191 2.693-12.478-2.496-16.289s-12.477-2.688-16.289 2.496a11.657 11.657 0 0 0 .002 13.793zm1.409-1.031a20.985 20.985 0 0 1 3.96 10.266h8.055a21.061 21.061 0 0 1 3.959-10.266c3.242-4.408 2.297-10.622-2.125-13.857-4.408-3.241-10.608-2.289-13.849 2.126a9.876 9.876 0 0 0 0 11.731zm2.395 13.884v.902c0 .234.186.42.419.42h10.343a.422.422 0 0 0 .422-.42v-.902a.419.419 0 0 0-.422-.412H45.561a.414.414 0 0 0-.419.412zm2.339 5.631a.42.42 0 0 0 .398.299h5.703a.42.42 0 0 0 .404-.299l.326-1.104h1.592a.425.425 0 0 0 .422-.418v-.903a.425.425 0 0 0-.422-.418H45.561a.42.42 0 0 0-.419.418v.904a.42.42 0 0 0 .419.418h1.593l.327 1.103zM79.809 22.772H94.48a3.415 3.415 0 0 1 3.42 3.419v53.875a3.421 3.421 0 0 1-3.42 3.426H79.809v-60.72zM21.653 22.772H6.986a3.422 3.422 0 0 0-3.426 3.419v53.875a3.428 3.428 0 0 0 3.426 3.426h14.667v-60.72zM37.515 15.485h26.438v3.91H37.515z"/></svg>