<svg xmlns="http://www.w3.org/2000/svg" xmlns:xlink="http://www.w3.org/1999/xlink" preserveAspectRatio="none" viewBox="0 0 100 100"><defs><path fill="#BBB" d="M87 14.05q0-2.15-2.1-3.7-2.2-1.2-4.15-.1-3.05 1.55-5.45 2.25-3.05.85-7.65.85-5 0-8.4-1.15-2.15-.5-5.85-2.55-3.9-2-7.25-3.25-5-1.55-10.95-1.4-6.3.15-14.1 2.55l-2.75 1q-5.25 2.25-5.25 8.3L13 90.8q0 1.85 1.25 2.95 1.2 1.25 3 1.25 1.7 0 3-1.25 1.25-1.1 1.25-2.95V56.25q3.65-1.8 5.6-2.4 3.7-1.1 8.1-1.1 4.5 0 8.25 1.1 2.2.8 5.95 2.7 4.05 2.3 7.3 3.25 4.7 1.4 10.95 1.4 9.3 0 16.9-4.1Q87 56 87 53.45v-39.4z" id="a"/></defs><use xlink:href="#a"/></svg>