<svg xmlns="http://www.w3.org/2000/svg" viewBox="-255 347 100 100"><path fill-rule="evenodd" clip-rule="evenodd" d="M-177.5 382.5c-5.5 0-10-4.5-10-10s4.5-10 10-10 10 4.5 10 10-4.5 10-10 10zm0-16c-3.3 0-6 2.7-6 6s2.7 6 6 6 6-2.7 6-6-2.7-6-6-6zm-14.2 51l5.7 5.7-2.8 2.8-5.7-5.7-5.7 5.7-2.8-2.8 5.7-5.7-5.7-5.7 2.8-2.8 5.7 5.7 5.7-5.7 2.8 2.8-5.7 5.7zm-11.6-26.6l3.8-9.1c-4.9 1.7-27.3 10.6-29.8 30.9 4.5 1 7.8 5 7.8 9.8 0 5.5-4.5 10-10 10s-10-4.5-10-10c0-4.9 3.5-8.9 8.1-9.8.7-4.4 5.4-25.9 32.5-33.8l-8.6-3.7 1.5-3.7 14.5 6.3-6.2 14.7-3.6-1.6zm-34.2 31.6c0 3.3 2.7 6 6 6s6-2.7 6-6-2.7-6-6-6-6 2.7-6 6zm11.7-42.5l-5.7-5.7-5.7 5.7-2.8-2.8 5.7-5.7-5.7-5.7 2.8-2.8 5.7 5.7 5.7-5.7 2.8 2.8-5.7 5.7 5.7 5.7-2.8 2.8z"/></svg>