<svg id="d3893d2b-b342-40e2-a52f-cabcf26ead1e" data-name="Layer 1" xmlns="http://www.w3.org/2000/svg" viewBox="0 0 313.62 128.03"><title>unhammer</title><circle cx="156.73" cy="53.65" r="53.15" style="fill:#fff"/><path d="M404.36,545.33A53.65,53.65,0,1,1,458,491.69,53.71,53.71,0,0,1,404.36,545.33Zm0-106.29A52.65,52.65,0,1,0,457,491.69,52.7,52.7,0,0,0,404.36,439Z" transform="translate(-247.63 -438.04)"/><path d="M478.39,481.9h74a8.4,8.4,0,0,1,8.4,8.4v66.86a8.4,8.4,0,0,1-8.4,8.4H256.53a8.4,8.4,0,0,1-8.4-8.4V490.3a8.4,8.4,0,0,1,8.4-8.4h96.16" transform="translate(-247.63 -438.04)" style="fill:#fff"/><path d="M552.34,566.07H256.53a8.9,8.9,0,0,1-8.9-8.9V490.3a8.9,8.9,0,0,1,8.9-8.9h96.16v1H256.53a7.9,7.9,0,0,0-7.9,7.9v66.86a7.89,7.89,0,0,0,7.9,7.9H552.34a7.9,7.9,0,0,0,7.9-7.9V490.3a7.9,7.9,0,0,0-7.9-7.9h-74v-1h74a8.9,8.9,0,0,1,8.9,8.9v66.86A8.9,8.9,0,0,1,552.34,566.07Z" transform="translate(-247.63 -438.04)"/><rect x="208.53" y="43.36" width="74.15" height="1"/><rect x="208.37" y="43.36" width="74.31" height="1"/><circle cx="156.73" cy="55.65" r="47.38"/><rect x="7.46" y="50.65" width="298.55" height="70.09" rx="8.4" ry="8.4"/><path d="M422,467.42l0.76-.76a0.61,0.61,0,0,1,.86,0l3,3a0.61,0.61,0,0,1,0,.86l-0.76.76Z" transform="translate(-247.63 -438.04)" style="fill:#fff"/><path d="M411.92,477.46l-18.07,18.07h0l-0.76.76a0.61,0.61,0,0,0,0,.86l3,3a0.61,0.61,0,0,0,.86,0l0.76-.76h0l18.07-18.07Z" transform="translate(-247.63 -438.04)" style="fill:#fff"/><path d="M429.17,476.53a1.09,1.09,0,0,0-.28-0.67l-5.47-5.47-0.55-.55-5.47-5.47a1.09,1.09,0,0,0-.67-0.28h-1.43a1.09,1.09,0,0,0-.67.28l-5.76,5.76a1.09,1.09,0,0,0-.28.67v1.43a1.09,1.09,0,0,0,.28.67l5.47,5.47,0.55,0.55,5.47,5.47a1.09,1.09,0,0,0,.67.28h1.43a1.09,1.09,0,0,0,.67-0.28l5.76-5.76a1.09,1.09,0,0,0,.28-0.67v-1.43Z" transform="translate(-247.63 -438.04)" style="fill:#fff"/><path d="M382.88,471.29l-0.76-.76a0.61,0.61,0,0,1,0-.86l3-3a0.61,0.61,0,0,1,.86,0l0.76,0.76Z" transform="translate(-247.63 -438.04)" style="fill:#fff"/><path d="M392.92,481.33L411,499.4h0l0.76,0.76a0.61,0.61,0,0,0,.86,0l3-3a0.61,0.61,0,0,0,0-.86l-0.76-.76h0l-18.07-18.07Z" transform="translate(-247.63 -438.04)" style="fill:#fff"/><path d="M392,464.08a1.09,1.09,0,0,0-.67.28l-5.47,5.47-0.55.55-5.47,5.47a1.09,1.09,0,0,0-.28.67V478a1.09,1.09,0,0,0,.28.67l5.76,5.76a1.09,1.09,0,0,0,.67.28h1.43a1.09,1.09,0,0,0,.67-0.28l5.47-5.47,0.55-.55,5.47-5.47a1.09,1.09,0,0,0,.28-0.67v-1.43a1.09,1.09,0,0,0-.28-0.67l-5.76-5.76a1.09,1.09,0,0,0-.67-0.28H392Z" transform="translate(-247.63 -438.04)" style="fill:#fff"/><path d="M305.61,534.08a5.89,5.89,0,0,1-6.17,6.17h-10a5.89,5.89,0,0,1-6.17-6.17V508.79h6.26v24.08a1.33,1.33,0,0,0,1.48,1.48h6.87a1.33,1.33,0,0,0,1.48-1.48V508.79h6.26v25.29Zm-3.56-.61a3.07,3.07,0,0,1-3.39,3.39h-8.43a3.07,3.07,0,0,1-3.39-3.39V511.31H286v22.16a3.89,3.89,0,0,0,4.26,4.26h8.43a3.89,3.89,0,0,0,4.26-4.26V511.31H302v22.16Z" transform="translate(-247.63 -438.04)" style="fill:#fff"/><path d="M336.11,508.79v31.29h-6.74l-11.52-21.34v21.34H312V508.79h6.74l11.52,21.34V508.79h5.87Zm-3.39,27.9h-1.48L317.3,511.31h-2.78v26.25h0.87V512.18h1.48l13.95,25.38h2.78V511.31h-0.87v25.38Z" transform="translate(-247.63 -438.04)" style="fill:#fff"/><path d="M343,508.79h6.26v12.34H360V508.79h6.26v31.29H360V527H349.23v13H343V508.79Zm19.73,14.86H346.54V511.31h-0.87v26.25h0.87v-13H362.7v13h0.87V511.31H362.7v12.34Z" transform="translate(-247.63 -438.04)" style="fill:#fff"/><path d="M376.87,540.08h-6.48l10.08-31.29h7.3l10.08,31.29h-6.74l-2-7H379Zm17.29-2.52-8-26.25h-4L374,537.56h0.83l2.17-7h14.25l2.13,7h0.83Zm-11.52-25.38-5.43,17.47h13.73l-5.35-17.47h-3Zm1.43,3.48,3.3,11.47h-6.69Z" transform="translate(-247.63 -438.04)" style="fill:#fff"/><path d="M431.88,540.08H426V519.22l-6.78,15.86h-4.52l-6.78-15.86v20.86H402V508.79h6.87l8.08,18.34L425,508.79h6.87v31.29Zm-14.47-8.82h-1l-9-19.95H404.5v26.25h0.87V512.18h1.56l9,19.95h1.91l9-19.95h1.56v25.38h0.87V511.31h-2.91Z" transform="translate(-247.63 -438.04)" style="fill:#fff"/><path d="M468.64,540.08h-5.91V519.22l-6.78,15.86h-4.52l-6.78-15.86v20.86h-5.91V508.79h6.87l8.08,18.34,8.08-18.34h6.87v31.29Zm-14.47-8.82h-1l-9-19.95h-2.91v26.25h0.87V512.18h1.56l9,19.95h1.91l9-19.95h1.56v25.38h0.87V511.31H463.2Z" transform="translate(-247.63 -438.04)" style="fill:#fff"/><path d="M496,508.79v5.91H481.75v6.43h11.52V527H481.75v7.13H496v5.91H475.5V508.79H496Zm-2.69,28.77v-0.87H479.06V524.52h11.52v-0.87H479.06V512.18h14.21v-0.87H478.19v26.25h15.08Z" transform="translate(-247.63 -438.04)" style="fill:#fff"/><path d="M517.82,540.08l-5-11.6h-5v11.6h-6.26V508.79h15.95A5.89,5.89,0,0,1,523.6,515v7.34a5.82,5.82,0,0,1-4.26,5.91l5.21,11.86h-6.74Zm2.74-2.52-5-11.56h1.13a3.89,3.89,0,0,0,4.26-4.26v-6.17a3.89,3.89,0,0,0-4.26-4.26H504.17v26.25H505V526h9.56l5,11.56h0.91ZM520,521.74a3.07,3.07,0,0,1-3.39,3.39H505v-13h11.6a3.07,3.07,0,0,1,3.39,3.39v6.17Zm-4.17.91a1.33,1.33,0,0,0,1.48-1.48v-5a1.33,1.33,0,0,0-1.48-1.48h-8.13v8h8.13Z" transform="translate(-247.63 -438.04)" style="fill:#fff"/></svg>