<svg xmlns="http://www.w3.org/2000/svg" viewBox="0 0 100 68.726"><path fill="#010101" d="M64.911 0c-2.767 0-3.022 2.141-4.422 3.679-5.988 7.653-11.843 17.111-27.291 17.111H9.802C5.471 20.759 0 22.678 0 32.482c0 13.074 10.151 12.596 10.151 12.596v-.024h3.455L26.623 66.54c1.265 1.519 3.537 2.908 5.688 1.769l7.855-3.999-11.144-19.256h4.174c14.263 0 19.678 7.749 25.829 14.67l.004-.01.16.191c.249.28.49.56.728.837 1.394 1.578 2.984 4.371 5.118 4.332 2.271-.289 2.913-1.686 2.913-3.34V3.353C67.949 1.66 66.879 0 64.911 0zm-44.48 37.98H10.317c-.884 0-1.769-.884-1.769-1.771 0-.884.886-1.645 1.769-1.645h10.114c.884 0 1.641.761 1.641 1.645 0 .885-.758 1.771-1.641 1.771zm0-7.333H10.317c-.884 0-1.769-.884-1.769-1.767 0-.887.886-1.643 1.769-1.643h10.114c.884 0 1.641.756 1.641 1.643 0 .884-.758 1.767-1.641 1.767zm39.177 18.704c-7.961-7.959-12.765-9.985-24.771-9.985V26.354c12.007 0 16.937-2.148 24.771-10.492v33.489zM81.662 18.974a3.277 3.277 0 0 0-4.633-.002 3.28 3.28 0 0 0 0 4.634 12.474 12.474 0 0 1 3.676 8.876c0 3.353-1.307 6.509-3.676 8.875a3.282 3.282 0 0 0 0 4.636c.64.636 1.479.954 2.316.954.838 0 1.676-.32 2.315-.958a18.973 18.973 0 0 0 5.596-13.508 18.985 18.985 0 0 0-5.594-13.507z"/><path fill="#010101" d="M91.213 11.266a3.275 3.275 0 0 0-4.632 4.631 23.3 23.3 0 0 1 6.867 16.584 23.3 23.3 0 0 1-6.867 16.585 3.277 3.277 0 0 0 0 4.632c.64.638 1.478.958 2.316.958.837 0 1.677-.32 2.315-.958C96.88 48.028 100 40.497 100 32.481s-3.12-15.545-8.787-21.215z"/></svg>