<svg xmlns="http://www.w3.org/2000/svg" viewBox="0 0 100 100"><path d="M29.943 58.815c-4.86 0-8.815-3.954-8.815-8.814s3.955-8.815 8.815-8.815 8.815 3.955 8.815 8.815-3.954 8.814-8.815 8.814zm0-15.53A6.723 6.723 0 0 0 23.228 50c0 3.703 3.013 6.714 6.715 6.714s6.715-3.012 6.715-6.714c.001-3.702-3.012-6.715-6.715-6.715zM50 58.815c-4.86 0-8.815-3.954-8.815-8.814S45.14 41.185 50 41.185 58.815 45.14 58.815 50 54.86 58.815 50 58.815zm0-15.53A6.723 6.723 0 0 0 43.285 50c0 3.703 3.013 6.714 6.715 6.714s6.715-3.012 6.715-6.714A6.723 6.723 0 0 0 50 43.285zM70.057 58.815c-4.86 0-8.815-3.954-8.815-8.814s3.955-8.815 8.815-8.815 8.815 3.955 8.815 8.815-3.955 8.814-8.815 8.814zm0-15.53A6.723 6.723 0 0 0 63.342 50c0 3.703 3.013 6.714 6.715 6.714s6.715-3.012 6.715-6.714a6.723 6.723 0 0 0-6.715-6.715z"/></svg>