<svg xmlns="http://www.w3.org/2000/svg" viewBox="0 0 100 100"><title>Plus 2r</title><g fill="#FFF" fill-rule="evenodd"><path d="M52 48V26.99c0-1.1-.895-1.99-2-1.99-1.112 0-2 .891-2 1.99V48H26.99c-1.1 0-1.99.895-1.99 2 0 1.112.891 2 1.99 2H48v21.01c0 1.1.895 1.99 2 1.99 1.112 0 2-.891 2-1.99V52h21.01c1.1 0 1.99-.895 1.99-2 0-1.112-.891-2-1.99-2H52z"/><path d="M50 92c23.196 0 42-18.804 42-42S73.196 8 50 8 8 26.804 8 50s18.804 42 42 42zm0-4c-20.987 0-38-17.013-38-38s17.013-38 38-38 38 17.013 38 38-17.013 38-38 38z"/></g></svg>