<svg xmlns="http://www.w3.org/2000/svg" xmlns:xlink="http://www.w3.org/1999/xlink" viewBox="0 0 100 100" version="1.1" x="0px" y="0px"><title>Plus 2r</title><desc>Created with Sketch.</desc><g stroke="none" stroke-width="1" fill="none" fill-rule="evenodd"><g fill="#FFFFFF"><path d="M52,48 L52,26.9909141 C52,25.8890643 51.1045695,25 50,25 C48.8877296,25 48,25.8913626 48,26.9909141 L48,48 L26.9909141,48 C25.8890643,48 25,48.8954305 25,50 C25,51.1122704 25.8913626,52 26.9909141,52 L48,52 L48,73.0090859 C48,74.1109357 48.8954305,75 50,75 C51.1122704,75 52,74.1086374 52,73.0090859 L52,52 L73.0090859,52 C74.1109357,52 75,51.1045695 75,50 C75,48.8877296 74.1086374,48 73.0090859,48 L52,48 Z"></path><path d="M50,92 C73.1959595,92 92,73.1959595 92,50 C92,26.8040405 73.1959595,8 50,8 C26.8040405,8 8,26.8040405 8,50 C8,73.1959595 26.8040405,92 50,92 L50,92 Z M50,88 C29.0131795,88 12,70.9868205 12,50 C12,29.0131795 29.0131795,12 50,12 C70.9868205,12 88,29.0131795 88,50 C88,70.9868205 70.9868205,88 50,88 L50,88 Z"></path></g></g></svg>
