<svg xmlns="http://www.w3.org/2000/svg" xmlns:xlink="http://www.w3.org/1999/xlink" version="1.1" x="0px" y="0px" viewBox="0 0 100 100" enable-background="new 0 0 100 100" xml:space="preserve"><path d="M25.215,22.772h51.039v60.72H25.215V22.772z M41.338,52.461c2.048,2.779,3.306,6.049,3.654,9.49l0.149,1.479h11.184  l0.148-1.479c0.348-3.441,1.607-6.711,3.648-9.49c3.809-5.191,2.693-12.478-2.496-16.289s-12.477-2.688-16.289,2.496  C38.325,42.771,38.325,48.358,41.338,52.461z M42.747,51.43c2.21,3.006,3.576,6.555,3.96,10.266h8.055  c0.385-3.711,1.756-7.26,3.959-10.266c3.242-4.408,2.297-10.622-2.125-13.857c-4.408-3.241-10.608-2.289-13.849,2.126  C40.173,43.19,40.173,47.939,42.747,51.43z M45.142,65.314v0.902c0,0.234,0.186,0.42,0.419,0.42h10.343  c0.229,0,0.422-0.186,0.422-0.42v-0.902c0-0.229-0.193-0.412-0.422-0.412H45.561C45.328,64.902,45.142,65.086,45.142,65.314z   M47.481,70.945c0.051,0.178,0.221,0.299,0.398,0.299h5.703c0.189,0,0.348-0.121,0.404-0.299l0.326-1.104h1.592  c0.229,0,0.422-0.191,0.422-0.418V68.52c0-0.227-0.193-0.418-0.422-0.418H45.561c-0.233,0-0.419,0.191-0.419,0.418v0.904  c0,0.227,0.186,0.418,0.419,0.418h1.593L47.481,70.945z"></path><g><path d="M79.809,22.772H94.48c1.893,0,3.42,1.528,3.42,3.419v53.875c0,1.891-1.527,3.426-3.42,3.426H79.809V22.772z"></path></g><g><path d="M21.653,22.772H6.986c-1.89,0-3.426,1.528-3.426,3.419v53.875c0,1.891,1.536,3.426,3.426,3.426h14.667V22.772z"></path></g><g><rect x="37.515" y="15.485" width="26.438" height="3.91"></rect></g></svg>