<svg xmlns="http://www.w3.org/2000/svg" xmlns:xlink="http://www.w3.org/1999/xlink" version="1.1" x="0px" y="0px" viewBox="0 0 48 48" enable-background="new 0 0 48 48" xml:space="preserve"><path fill="#000000" d="M43,27c3.4-3.4,4.8-7.9,4.5-12.2c-0.1-0.8-1-1.1-1.6-0.6l-6.1,6.1c-0.2,0.2-0.5,0.3-0.8,0.3l-9.5-1.2  c-0.4-0.1-0.8-0.4-0.8-0.8L27.5,9c0-0.3,0.1-0.6,0.3-0.8l6.1-6.1c0.6-0.6,0.2-1.5-0.6-1.6C28.9,0.2,24.4,1.7,21,5  c-3.9,3.9-5.3,9.3-4.2,14.2c0.1,0.6,0,1.3-0.5,1.7L0.8,36.6c-0.4,0.4-0.4,1,0,1.3l9.3,9.3c0.4,0.4,1,0.4,1.3,0L27,31.6  c0.4-0.4,1.1-0.6,1.7-0.5C33.7,32.2,39.1,30.8,43,27z"></path></svg>