<svg xmlns="http://www.w3.org/2000/svg" xmlns:xlink="http://www.w3.org/1999/xlink" version="1.1" x="0px" y="0px" viewBox="-255 347 100 100" enable-background="new -255 347 100 100" xml:space="preserve"><path fill-rule="evenodd" clip-rule="evenodd" fill="#000000" d="M-177.5,382.5c-5.5,0-10-4.5-10-10s4.5-10,10-10s10,4.5,10,10  S-172,382.5-177.5,382.5z M-177.5,366.5c-3.3,0-6,2.7-6,6s2.7,6,6,6c3.3,0,6-2.7,6-6S-174.2,366.5-177.5,366.5z M-191.7,417.5  l5.7,5.7l-2.8,2.8l-5.7-5.7l-5.7,5.7l-2.8-2.8l5.7-5.7l-5.7-5.7l2.8-2.8l5.7,5.7l5.7-5.7l2.8,2.8L-191.7,417.5z M-203.3,390.9  l3.8-9.1c-4.9,1.7-27.3,10.6-29.8,30.9c4.5,1,7.8,5,7.8,9.8c0,5.5-4.5,10-10,10s-10-4.5-10-10c0-4.9,3.5-8.9,8.1-9.8  c0.7-4.4,5.4-25.9,32.5-33.8l-8.6-3.7l1.5-3.7l14.5,6.3l-6.2,14.7L-203.3,390.9z M-237.5,422.5c0,3.3,2.7,6,6,6s6-2.7,6-6  s-2.7-6-6-6S-237.5,419.2-237.5,422.5z M-225.8,380l-5.7-5.7l-5.7,5.7l-2.8-2.8l5.7-5.7l-5.7-5.7l2.8-2.8l5.7,5.7l5.7-5.7l2.8,2.8  l-5.7,5.7l5.7,5.7L-225.8,380z"></path></svg>