<svg id="d3893d2b-b342-40e2-a52f-cabcf26ead1e" data-name="Layer 1" xmlns="http://www.w3.org/2000/svg" viewBox="0 0 313.62 128.03"><title>unhammer</title><circle cx="156.73" cy="53.65" r="53.15" fill="#fff"/><path d="M404.36 545.33A53.65 53.65 0 1 1 458 491.69a53.71 53.71 0 0 1-53.64 53.64zm0-106.29A52.65 52.65 0 1 0 457 491.69 52.7 52.7 0 0 0 404.36 439z" transform="translate(-247.63 -438.04)"/><path d="M478.39 481.9h74a8.4 8.4 0 0 1 8.4 8.4v66.86a8.4 8.4 0 0 1-8.4 8.4H256.53a8.4 8.4 0 0 1-8.4-8.4V490.3a8.4 8.4 0 0 1 8.4-8.4h96.16" transform="translate(-247.63 -438.04)" fill="#fff"/><path d="M552.34 566.07H256.53a8.9 8.9 0 0 1-8.9-8.9V490.3a8.9 8.9 0 0 1 8.9-8.9h96.16v1h-96.16a7.9 7.9 0 0 0-7.9 7.9v66.86a7.89 7.89 0 0 0 7.9 7.9h295.81a7.9 7.9 0 0 0 7.9-7.9V490.3a7.9 7.9 0 0 0-7.9-7.9h-74v-1h74a8.9 8.9 0 0 1 8.9 8.9v66.86a8.9 8.9 0 0 1-8.9 8.91z" transform="translate(-247.63 -438.04)"/><path d="M208.53 43.36h74.15v1h-74.15z"/><path d="M208.37 43.36h74.31v1h-74.31z"/><circle cx="156.73" cy="55.65" r="47.38"/><rect x="7.46" y="50.65" width="298.55" height="70.09" rx="8.4" ry="8.4"/><path d="M422 467.42l.76-.76a.61.61 0 0 1 .86 0l3 3a.61.61 0 0 1 0 .86l-.76.76zM411.92 477.46l-18.07 18.07-.76.76a.61.61 0 0 0 0 .86l3 3a.61.61 0 0 0 .86 0l.76-.76 18.07-18.07zM429.17 476.53a1.09 1.09 0 0 0-.28-.67l-5.47-5.47-.55-.55-5.47-5.47a1.09 1.09 0 0 0-.67-.28h-1.43a1.09 1.09 0 0 0-.67.28l-5.76 5.76a1.09 1.09 0 0 0-.28.67v1.43a1.09 1.09 0 0 0 .28.67l5.47 5.47.55.55 5.47 5.47a1.09 1.09 0 0 0 .67.28h1.43a1.09 1.09 0 0 0 .67-.28l5.76-5.76a1.09 1.09 0 0 0 .28-.67v-1.43zM382.88 471.29l-.76-.76a.61.61 0 0 1 0-.86l3-3a.61.61 0 0 1 .86 0l.76.76z" transform="translate(-247.63 -438.04)" fill="#fff"/><path d="M392.92 481.33L411 499.4l.76.76a.61.61 0 0 0 .86 0l3-3a.61.61 0 0 0 0-.86l-.76-.76-18.07-18.07zM392 464.08a1.09 1.09 0 0 0-.67.28l-5.47 5.47-.55.55-5.47 5.47a1.09 1.09 0 0 0-.28.67V478a1.09 1.09 0 0 0 .28.67l5.76 5.76a1.09 1.09 0 0 0 .67.28h1.43a1.09 1.09 0 0 0 .67-.28l5.47-5.47.55-.55 5.47-5.47a1.09 1.09 0 0 0 .28-.67v-1.43a1.09 1.09 0 0 0-.28-.67l-5.76-5.76a1.09 1.09 0 0 0-.67-.28H392zM305.61 534.08a5.89 5.89 0 0 1-6.17 6.17h-10a5.89 5.89 0 0 1-6.17-6.17v-25.29h6.26v24.08a1.33 1.33 0 0 0 1.48 1.48h6.87a1.33 1.33 0 0 0 1.48-1.48v-24.08h6.26v25.29zm-3.56-.61a3.07 3.07 0 0 1-3.39 3.39h-8.43a3.07 3.07 0 0 1-3.39-3.39v-22.16H286v22.16a3.89 3.89 0 0 0 4.26 4.26h8.43a3.89 3.89 0 0 0 4.26-4.26v-22.16H302v22.16zM336.11 508.79v31.29h-6.74l-11.52-21.34v21.34H312v-31.29h6.74l11.52 21.34v-21.34h5.87zm-3.39 27.9h-1.48l-13.94-25.38h-2.78v26.25h.87v-25.38h1.48l13.95 25.38h2.78v-26.25h-.87v25.38zM343 508.79h6.26v12.34H360v-12.34h6.26v31.29H360V527h-10.77v13H343v-31.21zm19.73 14.86h-16.19v-12.34h-.87v26.25h.87v-13h16.16v13h.87v-26.25h-.87v12.34zM376.87 540.08h-6.48l10.08-31.29h7.3l10.08 31.29h-6.74l-2-7H379zm17.29-2.52l-8-26.25h-4L374 537.56h.83l2.17-7h14.25l2.13 7h.83zm-11.52-25.38l-5.43 17.47h13.73l-5.35-17.47h-3zm1.43 3.48l3.3 11.47h-6.69zM431.88 540.08H426v-20.86l-6.78 15.86h-4.52l-6.78-15.86v20.86H402v-31.29h6.87l8.08 18.34 8.05-18.34h6.87v31.29zm-14.47-8.82h-1l-9-19.95h-2.91v26.25h.87v-25.38h1.56l9 19.95h1.91l9-19.95h1.56v25.38h.87v-26.25h-2.91zM468.64 540.08h-5.91v-20.86l-6.78 15.86h-4.52l-6.78-15.86v20.86h-5.91v-31.29h6.87l8.08 18.34 8.08-18.34h6.87v31.29zm-14.47-8.82h-1l-9-19.95h-2.91v26.25h.87v-25.38h1.56l9 19.95h1.91l9-19.95h1.56v25.38h.87v-26.25h-2.83zM496 508.79v5.91h-14.25v6.43h11.52V527h-11.52v7.13H496v5.91h-20.5v-31.25H496zm-2.69 28.77v-.87h-14.25v-12.17h11.52v-.87h-11.52v-11.47h14.21v-.87h-15.08v26.25h15.08zM517.82 540.08l-5-11.6h-5v11.6h-6.26v-31.29h15.95a5.89 5.89 0 0 1 6.09 6.21v7.34a5.82 5.82 0 0 1-4.26 5.91l5.21 11.86h-6.74zm2.74-2.52l-5-11.56h1.13a3.89 3.89 0 0 0 4.26-4.26v-6.17a3.89 3.89 0 0 0-4.26-4.26h-12.52v26.25h.83V526h9.56l5 11.56h.91zm-.56-15.82a3.07 3.07 0 0 1-3.39 3.39H505v-13h11.6a3.07 3.07 0 0 1 3.39 3.39v6.17zm-4.17.91a1.33 1.33 0 0 0 1.48-1.48v-5a1.33 1.33 0 0 0-1.48-1.48h-8.13v8h8.13z" transform="translate(-247.63 -438.04)" fill="#fff"/></svg>